<?xml version="1.0" encoding="UTF-8" standalone="no"?>
<!DOCTYPE svg PUBLIC "-//W3C//DTD SVG 1.1//EN" "http://www.w3.org/Graphics/SVG/1.1/DTD/svg11.dtd">
<svg width="100%" height="100%" viewBox="0 0 588 568" version="1.1" xmlns="http://www.w3.org/2000/svg" xmlns:xlink="http://www.w3.org/1999/xlink" xml:space="preserve" xmlns:serif="http://www.serif.com/" style="fill-rule:evenodd;clip-rule:evenodd;stroke-linecap:round;stroke-linejoin:round;stroke-miterlimit:1.5;">
    <g transform="matrix(1,0,0,1,-933.815,-932.173)">
        <g transform="matrix(1,0,0,1,-837.63,81.9875)">
            <path d="M1991.15,1346.46L1991.32,1373.38L1990.78,1399.77L1988.29,1405.51L1984.25,1410.88L1975.59,1411.74L1956.48,1405.51L1937.01,1399.6L1925.2,1393.7L1909.84,1385.43L1898.03,1378.35L1888.58,1370.08L1868.5,1355.91L1853.15,1341.73L1841.34,1327.56L1829.53,1313.39L1815.35,1292.13L1797.64,1260.24L1785.83,1229.53L1775.2,1185.83L1771.65,1151.33L1771.65,1127.29L1775.31,1095.44L1783.47,1051.18L1795.28,1020.65L1810.42,996.816L1825.31,971.98L1842.52,949.239L1858.99,933.071L1881.27,915.482C1888.97,909.534 1896.16,902.629 1905.59,896.681C1913.77,890.82 1922.8,886.187 1930.98,880.689L1955.96,870.21L1979.17,862.205L1996.06,858.186L2019.68,853.805L2048.15,850.394L2092.71,850.394L2121.05,856.418L2142.97,862.205L2161.42,868.437L2179.04,874.016L2201.45,885.827L2224.45,897.638L2244.09,909.449L2258.51,924.345L2275.7,940.806L2291.34,956.693L2308.14,980.315L2326.77,1008.72L2334.64,1027.56L2344.8,1051.18L2350.39,1074.8L2357.03,1103.23L2357.74,1118.98L2358.3,1157.48L2356.07,1183.71L2346.03,1228.35L2338.58,1251.97L2326.77,1275.59L2314.96,1294.77L2298.34,1317.1L2279.53,1340.25L2263.04,1352.93L2244.09,1370.08L2214.28,1389.21L2196.85,1400.71L2173.23,1410.72L2154.48,1417.32L2143.07,1411.36L2137.8,1400.42L2137.8,1358.27L2137.8,1334.65L2137.8,1302.49L2130.56,1287.4L2125.98,1275.59L2118.89,1267.92L2135.34,1263.78L2154.88,1260.25L2185.04,1251.97L2200.57,1240.16L2214.42,1228.35L2227.77,1213.88L2238.13,1192.91L2247.18,1162.89L2249.91,1137.6L2248.94,1107.59L2241.3,1086.61L2232.28,1065.93L2220.47,1051.18L2226.94,1034.15L2227.43,1016.12L2225.88,998.62L2220.47,980.315C2219.11,977.472 2216.43,976.077 2212.45,976.13L2196.85,977.445C2193.01,978.651 2189.63,980.516 2185.55,981.102L2173.23,987.102L2159.41,992.767L2149.61,999.4L2137.8,1003.94L2125.98,1003.94L2114.17,1000.26L2097.04,997.05L2085.12,996.763L2058.86,995.899L2036.55,996.776L2015.6,999.989L2002.1,1003.94L1991.15,1003.94L1980.5,997.529L1964.14,989.383C1964.14,989.383 1957.71,988.27 1950.65,986.227C1943.63,984.2 1935.99,981.246 1933.38,980.315L1925.2,976.227C1920.26,973.395 1916.53,974.59 1913.39,977.763L1909.59,985.553L1905.5,1000.59L1904.37,1015.75L1904.24,1030.05L1905.86,1035.83L1907.62,1043.58L1909.71,1048.62L1910.55,1051.87L1904.97,1058.63L1902.11,1062.85L1898.54,1068.34L1894.87,1074.87L1892.56,1080.01L1889.25,1088.28L1887.41,1095.64L1885.27,1102.19L1883.84,1110.85L1882.41,1117.91L1882.48,1135.29L1882.9,1147.52L1885.86,1164.06L1887.48,1173.72L1890.93,1185.2L1894.77,1195.17L1898.41,1203.56L1905.28,1213.8L1909.74,1220.68L1915.16,1226.99L1921.39,1232.74L1937.13,1243.67L1947.57,1248.81L1956.7,1252.99L1973.08,1258.47L1982.34,1260.92L1998.7,1264.07L2007.04,1265.45L2010.45,1265.8L2014.16,1267.7L2012.61,1270.71L2008.21,1274.45L2003.77,1279.73L1999.48,1289.04L1996.68,1295.27L1994.47,1302.24L1992.54,1306.21L1986.83,1308.55L1978.75,1310.82L1969.58,1312.44L1962.02,1313.1L1950.92,1313.33L1935.82,1309.72L1926.3,1305.33L1915.25,1295.04L1908.97,1287.54L1902.75,1278L1898.11,1274.12L1890.26,1267.71L1884.52,1263.44L1878.15,1259.58L1870.54,1255.65L1862.39,1255.68L1852.62,1256.01L1848.43,1259.42L1852.81,1264.82L1859.33,1269.45L1867.44,1276.04L1874.49,1282.26L1877.52,1287.36L1882.3,1293.57L1887.02,1300.64L1891.9,1310.3L1896.79,1320.32L1903.13,1327.93L1908.26,1334.16L1915.64,1338.79L1924.01,1344.08L1930.71,1346.75L1940.18,1349.06L1952.7,1350.69L1963.93,1351.32L1975.58,1350.3L1986.34,1347.86L1991.15,1346.46Z" style="fill:rgb(57,174,207);"/>
            <clipPath id="_clip1">
                <path d="M1991.15,1346.46L1991.32,1373.38L1990.78,1399.77L1988.29,1405.51L1984.25,1410.88L1975.59,1411.74L1956.48,1405.51L1937.01,1399.6L1925.2,1393.7L1909.84,1385.43L1898.03,1378.35L1888.58,1370.08L1868.5,1355.91L1853.15,1341.73L1841.34,1327.56L1829.53,1313.39L1815.35,1292.13L1797.64,1260.24L1785.83,1229.53L1775.2,1185.83L1771.65,1151.33L1771.65,1127.29L1775.31,1095.44L1783.47,1051.18L1795.28,1020.65L1810.42,996.816L1825.31,971.98L1842.52,949.239L1858.99,933.071L1881.27,915.482C1888.97,909.534 1896.16,902.629 1905.59,896.681C1913.77,890.82 1922.8,886.187 1930.98,880.689L1955.96,870.21L1979.17,862.205L1996.06,858.186L2019.68,853.805L2048.15,850.394L2092.71,850.394L2121.05,856.418L2142.97,862.205L2161.42,868.437L2179.04,874.016L2201.45,885.827L2224.45,897.638L2244.09,909.449L2258.51,924.345L2275.7,940.806L2291.34,956.693L2308.14,980.315L2326.77,1008.72L2334.64,1027.56L2344.8,1051.18L2350.39,1074.8L2357.03,1103.23L2357.74,1118.98L2358.3,1157.48L2356.07,1183.71L2346.03,1228.35L2338.58,1251.97L2326.77,1275.59L2314.96,1294.77L2298.34,1317.1L2279.53,1340.25L2263.04,1352.93L2244.09,1370.08L2214.28,1389.21L2196.85,1400.71L2173.23,1410.72L2154.48,1417.32L2143.07,1411.36L2137.8,1400.42L2137.8,1358.27L2137.8,1334.65L2137.8,1302.49L2130.56,1287.4L2125.98,1275.59L2118.89,1267.92L2135.34,1263.78L2154.88,1260.25L2185.04,1251.97L2200.57,1240.16L2214.42,1228.35L2227.77,1213.88L2238.13,1192.91L2247.18,1162.89L2249.91,1137.6L2248.94,1107.59L2241.3,1086.61L2232.28,1065.93L2220.47,1051.18L2226.94,1034.15L2227.43,1016.12L2225.88,998.62L2220.47,980.315C2219.11,977.472 2216.43,976.077 2212.45,976.13L2196.85,977.445C2193.01,978.651 2189.63,980.516 2185.55,981.102L2173.23,987.102L2159.41,992.767L2149.61,999.4L2137.8,1003.94L2125.98,1003.94L2114.17,1000.26L2097.04,997.05L2085.12,996.763L2058.86,995.899L2036.55,996.776L2015.6,999.989L2002.1,1003.94L1991.15,1003.94L1980.5,997.529L1964.14,989.383C1964.14,989.383 1957.71,988.27 1950.65,986.227C1943.63,984.2 1935.99,981.246 1933.38,980.315L1925.2,976.227C1920.26,973.395 1916.53,974.59 1913.39,977.763L1909.59,985.553L1905.5,1000.59L1904.37,1015.75L1904.24,1030.05L1905.86,1035.83L1907.62,1043.58L1909.71,1048.62L1910.55,1051.87L1904.97,1058.63L1902.11,1062.85L1898.54,1068.34L1894.87,1074.87L1892.56,1080.01L1889.25,1088.28L1887.41,1095.64L1885.27,1102.19L1883.84,1110.85L1882.41,1117.91L1882.48,1135.29L1882.9,1147.52L1885.86,1164.06L1887.48,1173.72L1890.93,1185.2L1894.77,1195.17L1898.41,1203.56L1905.28,1213.8L1909.74,1220.68L1915.16,1226.99L1921.39,1232.74L1937.13,1243.67L1947.57,1248.81L1956.7,1252.99L1973.08,1258.47L1982.34,1260.92L1998.7,1264.07L2007.04,1265.45L2010.45,1265.8L2014.16,1267.7L2012.61,1270.71L2008.21,1274.45L2003.77,1279.73L1999.48,1289.04L1996.68,1295.27L1994.47,1302.24L1992.54,1306.21L1986.83,1308.55L1978.75,1310.82L1969.58,1312.44L1962.02,1313.1L1950.92,1313.33L1935.82,1309.72L1926.3,1305.33L1915.25,1295.04L1908.97,1287.54L1902.75,1278L1898.11,1274.12L1890.26,1267.71L1884.52,1263.44L1878.15,1259.58L1870.54,1255.65L1862.39,1255.68L1852.62,1256.01L1848.43,1259.42L1852.81,1264.82L1859.33,1269.45L1867.44,1276.04L1874.49,1282.26L1877.52,1287.36L1882.3,1293.57L1887.02,1300.64L1891.9,1310.3L1896.79,1320.32L1903.13,1327.93L1908.26,1334.16L1915.64,1338.79L1924.01,1344.08L1930.71,1346.75L1940.18,1349.06L1952.7,1350.69L1963.93,1351.32L1975.58,1350.3L1986.34,1347.86L1991.15,1346.46Z"/>
            </clipPath>
            <g clip-path="url(#_clip1)">
                <g transform="matrix(1.48733,0,0,1.44806,52.8089,-795.287)">
                    <rect x="976.597" y="969.001" width="633.864" height="622.983" style="fill:rgb(57,174,207);stroke:rgb(57,174,207);stroke-width:0.28px;"/>
                </g>
            </g>
            <path d="M1991.15,1346.46L1991.32,1373.38L1990.78,1399.77L1988.29,1405.51L1984.25,1410.88L1975.59,1411.74L1956.48,1405.51L1937.01,1399.6L1925.2,1393.7L1909.84,1385.43L1898.03,1378.35L1888.58,1370.08L1868.5,1355.91L1853.15,1341.73L1841.34,1327.56L1829.53,1313.39L1815.35,1292.13L1797.64,1260.24L1785.83,1229.53L1775.2,1185.83L1771.65,1151.33L1771.65,1127.29L1775.31,1095.44L1783.47,1051.18L1795.28,1020.65L1810.42,996.816L1825.31,971.98L1842.52,949.239L1858.99,933.071L1881.27,915.482C1888.97,909.534 1896.16,902.629 1905.59,896.681C1913.77,890.82 1922.8,886.187 1930.98,880.689L1955.96,870.21L1979.17,862.205L1996.06,858.186L2019.68,853.805L2048.15,850.394L2092.71,850.394L2121.05,856.418L2142.97,862.205L2161.42,868.437L2179.04,874.016L2201.45,885.827L2224.45,897.638L2244.09,909.449L2258.51,924.345L2275.7,940.806L2291.34,956.693L2308.14,980.315L2326.77,1008.72L2334.64,1027.56L2344.8,1051.18L2350.39,1074.8L2357.03,1103.23L2357.74,1118.98L2358.3,1157.48L2356.07,1183.71L2346.03,1228.35L2338.58,1251.97L2326.77,1275.59L2314.96,1294.77L2298.34,1317.1L2279.53,1340.25L2263.04,1352.93L2244.09,1370.08L2214.28,1389.21L2196.85,1400.71L2173.23,1410.72L2154.48,1417.32L2143.07,1411.36L2137.8,1400.42L2137.8,1358.27L2137.8,1334.65L2137.8,1302.49L2130.56,1287.4L2125.98,1275.59L2118.89,1267.92L2135.34,1263.78L2154.88,1260.25L2185.04,1251.97L2200.57,1240.16L2214.42,1228.35L2227.77,1213.88L2238.13,1192.91L2247.18,1162.89L2249.91,1137.6L2248.94,1107.59L2241.3,1086.61L2232.28,1065.93L2220.47,1051.18L2226.94,1034.15L2227.43,1016.12L2225.88,998.62L2220.47,980.315C2219.11,977.472 2216.43,976.077 2212.45,976.13L2196.85,977.445C2193.01,978.651 2189.63,980.516 2185.55,981.102L2173.23,987.102L2159.41,992.767L2149.61,999.4L2137.8,1003.94L2125.98,1003.94L2114.17,1000.26L2097.04,997.05L2085.12,996.763L2058.86,995.899L2036.55,996.776L2015.6,999.989L2002.1,1003.94L1991.15,1003.94L1980.5,997.529L1964.14,989.383C1964.14,989.383 1957.71,988.27 1950.65,986.227C1943.63,984.2 1935.99,981.246 1933.38,980.315L1925.2,976.227C1920.26,973.395 1916.53,974.59 1913.39,977.763L1909.59,985.553L1905.5,1000.59L1904.37,1015.75L1904.24,1030.05L1905.86,1035.83L1907.62,1043.58L1909.71,1048.62L1910.55,1051.87L1904.97,1058.63L1902.11,1062.85L1898.54,1068.34L1894.87,1074.87L1892.56,1080.01L1889.25,1088.28L1887.41,1095.64L1885.27,1102.19L1883.84,1110.85L1882.41,1117.91L1882.48,1135.29L1882.9,1147.52L1885.86,1164.06L1887.48,1173.72L1890.93,1185.2L1894.77,1195.17L1898.41,1203.56L1905.28,1213.8L1909.74,1220.68L1915.16,1226.99L1921.39,1232.74L1937.13,1243.67L1947.57,1248.81L1956.7,1252.99L1973.08,1258.47L1982.34,1260.92L1998.7,1264.07L2007.04,1265.45L2010.45,1265.8L2014.16,1267.7L2012.61,1270.71L2008.21,1274.45L2003.77,1279.73L1999.48,1289.04L1996.68,1295.27L1994.47,1302.24L1992.54,1306.21L1986.83,1308.55L1978.75,1310.82L1969.58,1312.44L1962.02,1313.1L1950.92,1313.33L1935.82,1309.72L1926.3,1305.33L1915.25,1295.04L1908.97,1287.54L1902.75,1278L1898.11,1274.12L1890.26,1267.71L1884.52,1263.44L1878.15,1259.58L1870.54,1255.65L1862.39,1255.68L1852.62,1256.01L1848.43,1259.42L1852.81,1264.82L1859.33,1269.45L1867.44,1276.04L1874.49,1282.26L1877.52,1287.36L1882.3,1293.57L1887.02,1300.64L1891.9,1310.3L1896.79,1320.32L1903.13,1327.93L1908.26,1334.16L1915.64,1338.79L1924.01,1344.08L1930.71,1346.75L1940.18,1349.06L1952.7,1350.69L1963.93,1351.32L1975.58,1350.3L1986.34,1347.86L1991.15,1346.46Z" style="fill:none;stroke:rgb(57,174,207);stroke-width:0.42px;"/>
        </g>
    </g>
</svg>
