<?xml version="1.0" encoding="UTF-8" standalone="no"?>
<!DOCTYPE svg PUBLIC "-//W3C//DTD SVG 1.1//EN" "http://www.w3.org/Graphics/SVG/1.1/DTD/svg11.dtd">
<svg width="100%" height="100%" viewBox="0 0 291 291" version="1.1" xmlns="http://www.w3.org/2000/svg" xmlns:xlink="http://www.w3.org/1999/xlink" xml:space="preserve" xmlns:serif="http://www.serif.com/" style="fill-rule:evenodd;clip-rule:evenodd;stroke-linecap:round;stroke-linejoin:round;stroke-miterlimit:1.5;">
    <g transform="matrix(1,0,0,1,-1700.79,-859.779)">
        <g transform="matrix(1.02579,0,0,1.02734,610.386,-136.419)">
            <path d="M1346.46,1040.26C1346.46,1001.31 1314.79,969.685 1275.78,969.685L1133.67,969.685C1094.66,969.685 1062.99,1001.31 1062.99,1040.26L1062.99,1181.4C1062.99,1220.35 1094.66,1251.97 1133.67,1251.97L1275.78,1251.97C1314.79,1251.97 1346.46,1220.35 1346.46,1181.4L1346.46,1040.26Z" style="fill:rgb(57,174,207);"/>
        </g>
        <g transform="matrix(1,0,0,1,269.291,-62.5984)">
            <path d="M1502.06,1025.57L1502.36,1137.4L1537.8,1137.4L1537.8,1025.2L1502.06,1025.57Z" style="fill:white;stroke:rgb(57,174,207);stroke-width:1px;"/>
        </g>
        <g transform="matrix(1.03333,0,0,1.02688,611.024,-142.28)">
            <rect x="1122.05" y="1074.8" width="35.433" height="110.417" style="fill:white;"/>
        </g>
        <g transform="matrix(1,0,0,1,269.291,-62.5984)">
            <path d="M1517.72,969.685C1514.29,970.145 1511.15,971.337 1508.27,973.228C1506.26,974.457 1504.77,976.105 1503.54,977.953C1502.39,978.948 1500.93,982.919 1501.18,987.402C1501.31,989.741 1501.71,992.22 1502.06,994.488C1502.77,999.09 1504.89,1002.82 1505.14,1002.76C1506.83,1004.46 1508.37,1006.04 1510.63,1007.48C1512.76,1008.53 1515.14,1008.7 1517.72,1009.25C1521.44,1008.88 1524.97,1008.64 1528.35,1007.48C1530.76,1006.49 1532.53,1005.31 1534.84,1003.94C1536.94,1000.63 1538.54,997.041 1538.98,993.307C1539.54,989.742 1539.22,986.188 1538.39,982.677C1536.32,978.919 1534.31,975.635 1530.71,973.228C1528.96,972.14 1527.11,971.102 1524.8,970.276C1522.46,969.641 1520.1,969.537 1517.72,969.685Z" style="fill:white;stroke:rgb(57,174,207);stroke-width:1px;"/>
        </g>
        <g transform="matrix(1.28571,0,0,1.23333,322.29,-352.087)">
            <ellipse cx="1140.94" cy="1038.19" rx="16.535" ry="17.717" style="fill:white;"/>
        </g>
        <g transform="matrix(1,0,0,1,425.926,-146.266)">
            <text x="1393.7px" y="1221.07px" style="font-family:'Arial-BoldMT', 'Arial', sans-serif;font-weight:700;font-size:220.833px;fill:white;">n</text>
        </g>
    </g>
</svg>
