<?xml version="1.0" encoding="UTF-8" standalone="no"?>
<!DOCTYPE svg PUBLIC "-//W3C//DTD SVG 1.1//EN" "http://www.w3.org/Graphics/SVG/1.1/DTD/svg11.dtd">
<svg width="100%" height="100%" viewBox="0 0 905 686" version="1.1" xmlns="http://www.w3.org/2000/svg" xmlns:xlink="http://www.w3.org/1999/xlink" xml:space="preserve" xmlns:serif="http://www.serif.com/" style="fill-rule:evenodd;clip-rule:evenodd;stroke-linecap:round;stroke-linejoin:round;stroke-miterlimit:1.5;">
    <g transform="matrix(1,0,0,1,-1155.13,-710.488)">
        <path d="M1155.63,841.615L1607.46,1068.41L2059.29,841.445L2059.29,712.54L1155.63,710.988L1155.63,841.615Z" style="fill:none;"/>
        <clipPath id="_clip1">
            <path d="M1155.63,841.615L1607.46,1068.41L2059.29,841.445L2059.29,712.54L1155.63,710.988L1155.63,841.615Z"/>
        </clipPath>
        <g clip-path="url(#_clip1)">
            <rect x="1125.57" y="667.809" width="1145.65" height="430.976" style="fill:rgb(57,174,207);"/>
        </g>
        <path d="M1155.63,841.615L1607.46,1068.41L2059.29,841.445L2059.29,712.54L1155.63,710.988L1155.63,841.615Z" style="fill:none;stroke:rgb(57,174,207);stroke-width:1px;"/>
        <path d="M1155.63,925.08L1607.46,1143.15L2059.29,926.739L2059.29,1395.5L1155.63,1393.09L1155.63,925.08Z" style="fill:rgb(57,174,207);"/>
        <clipPath id="_clip2">
            <path d="M1155.63,925.08L1607.46,1143.15L2059.29,926.739L2059.29,1395.5L1155.63,1393.09L1155.63,925.08Z"/>
        </clipPath>
        <g clip-path="url(#_clip2)">
            <rect x="1105.36" y="909.156" width="1002.65" height="569.329" style="fill:rgb(57,174,207);"/>
        </g>
        <path d="M1155.63,925.08L1607.46,1143.15L2059.29,926.739L2059.29,1395.5L1155.63,1393.09L1155.63,925.08Z" style="fill:none;stroke:rgb(57,174,207);stroke-width:1px;"/>
    </g>
</svg>
