<?xml version="1.0" encoding="UTF-8" standalone="no"?>
<!DOCTYPE svg PUBLIC "-//W3C//DTD SVG 1.1//EN" "http://www.w3.org/Graphics/SVG/1.1/DTD/svg11.dtd">
<svg width="100%" height="100%" viewBox="0 0 447 352" version="1.1" xmlns="http://www.w3.org/2000/svg" xmlns:xlink="http://www.w3.org/1999/xlink" xml:space="preserve" xmlns:serif="http://www.serif.com/" style="fill-rule:evenodd;clip-rule:evenodd;stroke-linecap:round;stroke-linejoin:round;stroke-miterlimit:1.5;">
    <g transform="matrix(1,0,0,1,-363.298,-965.448)">
        <g transform="matrix(1,0,0,1,-607.53,-207.82)">
            <path d="M1053.02,1385.99L1194.35,1467.65L1336.06,1384.93L1336.31,1426.33L1335.87,1443.63L1332.78,1456.85L1325.96,1469.77L1311.7,1484.75L1297.46,1497.21L1282.42,1505.38L1259.05,1514.88L1231.73,1521.93L1207.64,1524.51L1185.39,1524.72L1153.85,1521.21L1130.92,1515.04L1107.09,1506.32L1088.35,1495.27L1074.37,1483.65L1061.16,1467.49L1053.81,1449.58L1052.36,1433.07L1052,1416.19L1053.02,1385.99Z" style="fill:none;"/>
            <clipPath id="_clip1">
                <path d="M1053.02,1385.99L1194.35,1467.65L1336.06,1384.93L1336.31,1426.33L1335.87,1443.63L1332.78,1456.85L1325.96,1469.77L1311.7,1484.75L1297.46,1497.21L1282.42,1505.38L1259.05,1514.88L1231.73,1521.93L1207.64,1524.51L1185.39,1524.72L1153.85,1521.21L1130.92,1515.04L1107.09,1506.32L1088.35,1495.27L1074.37,1483.65L1061.16,1467.49L1053.81,1449.58L1052.36,1433.07L1052,1416.19L1053.02,1385.99Z"/>
            </clipPath>
            <g clip-path="url(#_clip1)">
                <g transform="matrix(1,0,0,1,617.958,94.9525)">
                    <rect x="382.248" y="1215.07" width="404.741" height="235.043" style="fill:rgb(57,174,207);stroke:rgb(57,174,207);stroke-width:0.42px;"/>
                </g>
            </g>
            <path d="M1053.02,1385.99L1194.35,1467.65L1336.06,1384.93L1336.31,1426.33L1335.87,1443.63L1332.78,1456.85L1325.96,1469.77L1311.7,1484.75L1297.46,1497.21L1282.42,1505.38L1259.05,1514.88L1231.73,1521.93L1207.64,1524.51L1185.39,1524.72L1153.85,1521.21L1130.92,1515.04L1107.09,1506.32L1088.35,1495.27L1074.37,1483.65L1061.16,1467.49L1053.81,1449.58L1052.36,1433.07L1052,1416.19L1053.02,1385.99Z" style="fill:none;stroke:rgb(57,174,207);stroke-width:0.42px;"/>
        </g>
        <g transform="matrix(1,0,0,1,-607.156,-222.273)">
            <path d="M971.243,1314.52L1194.35,1187.93L1416.9,1315.25L1386.68,1334.68L1386.97,1392.9L1394.3,1397.86L1397.2,1403L1397.96,1409.93L1395.48,1418.33L1391.47,1423.96L1387.54,1426.99L1385.46,1428.91L1390.26,1446.51L1394.15,1462.11L1398.19,1480.14L1401.22,1492.78L1404.06,1504.43L1405.32,1509.59L1402.66,1513.85L1397.87,1519.21L1391.88,1523.19L1383.98,1524.55L1372.96,1524.39L1365.05,1522.51L1356.39,1517.14L1351.74,1510.37L1351.65,1502.35L1355.01,1489.92L1361.56,1463.6L1367.03,1441.89L1370.1,1428.67L1364.24,1423.97L1360.16,1418.28L1358.53,1409.82L1359.78,1403.81L1363.67,1396.74L1369.67,1392.62L1370.08,1387.45L1369.93,1373.48L1369.91,1341.61L1203.14,1315L1203.41,1317.81L1346.64,1356.46L1194.35,1446.09L970.663,1316.72L971.243,1314.52Z" style="fill:none;"/>
            <clipPath id="_clip2">
                <path d="M971.243,1314.52L1194.35,1187.93L1416.9,1315.25L1386.68,1334.68L1386.97,1392.9L1394.3,1397.86L1397.2,1403L1397.96,1409.93L1395.48,1418.33L1391.47,1423.96L1387.54,1426.99L1385.46,1428.91L1390.26,1446.51L1394.15,1462.11L1398.19,1480.14L1401.22,1492.78L1404.06,1504.43L1405.32,1509.59L1402.66,1513.85L1397.87,1519.21L1391.88,1523.19L1383.98,1524.55L1372.96,1524.39L1365.05,1522.51L1356.39,1517.14L1351.74,1510.37L1351.65,1502.35L1355.01,1489.92L1361.56,1463.6L1367.03,1441.89L1370.1,1428.67L1364.24,1423.97L1360.16,1418.28L1358.53,1409.82L1359.78,1403.81L1363.67,1396.74L1369.67,1392.62L1370.08,1387.45L1369.93,1373.48L1369.91,1341.61L1203.14,1315L1203.41,1317.81L1346.64,1356.46L1194.35,1446.09L970.663,1316.72L971.243,1314.52Z"/>
            </clipPath>
            <g clip-path="url(#_clip2)">
                <g transform="matrix(1,0,0,1,607.156,222.273)">
                    <rect x="314.303" y="953.935" width="514.802" height="446.355" style="fill:rgb(57,174,207);stroke:rgb(57,174,207);stroke-width:0.42px;"/>
                </g>
            </g>
            <path d="M971.243,1314.52L1194.35,1187.93L1416.9,1315.25L1386.68,1334.68L1386.97,1392.9L1394.3,1397.86L1397.2,1403L1397.96,1409.93L1395.48,1418.33L1391.47,1423.96L1387.54,1426.99L1385.46,1428.91L1390.26,1446.51L1394.15,1462.11L1398.19,1480.14L1401.22,1492.78L1404.06,1504.43L1405.32,1509.59L1402.66,1513.85L1397.87,1519.21L1391.88,1523.19L1383.98,1524.55L1372.96,1524.39L1365.05,1522.51L1356.39,1517.14L1351.74,1510.37L1351.65,1502.35L1355.01,1489.92L1361.56,1463.6L1367.03,1441.89L1370.1,1428.67L1364.24,1423.97L1360.16,1418.28L1358.53,1409.82L1359.78,1403.81L1363.67,1396.74L1369.67,1392.62L1370.08,1387.45L1369.93,1373.48L1369.91,1341.61L1203.14,1315L1203.41,1317.81L1346.64,1356.46L1194.35,1446.09L970.663,1316.72L971.243,1314.52Z" style="fill:none;stroke:rgb(57,174,207);stroke-width:0.42px;"/>
        </g>
    </g>
</svg>
