<?xml version="1.0" encoding="UTF-8" standalone="no"?>
<!DOCTYPE svg PUBLIC "-//W3C//DTD SVG 1.1//EN" "http://www.w3.org/Graphics/SVG/1.1/DTD/svg11.dtd">
<svg width="100%" height="100%" viewBox="0 0 386 315" version="1.1" xmlns="http://www.w3.org/2000/svg" xmlns:xlink="http://www.w3.org/1999/xlink" xml:space="preserve" xmlns:serif="http://www.serif.com/" style="fill-rule:evenodd;clip-rule:evenodd;stroke-linecap:round;stroke-linejoin:round;stroke-miterlimit:1.5;">
    <g transform="matrix(1,0,0,1,-1460.52,-882.371)">
        <path d="M1488.19,895.276L1504.75,914.129L1523.62,930.709L1541.34,944.882L1558.47,953.74L1575.59,962.008L1593.31,968.504L1609.84,973.228L1630.51,977.362L1648.82,979.134L1647.64,960.236C1647.51,951.969 1647.86,943.701 1651.18,935.433C1653,928.74 1657.16,922.047 1662.4,915.354C1665.11,909.725 1671.74,904.235 1677.76,898.819L1695.47,888.78C1702.55,885.27 1709.96,882.781 1716.14,882.874L1737.4,882.874L1752.76,885.827L1761.02,889.37L1768.7,893.504L1778.15,900.591L1783.47,905.906L1797.64,904.724L1813.58,898.819L1824.8,893.504C1828.02,891.456 1831.33,890.08 1835.43,888.78C1836.16,889.173 1835.89,889.836 1835.43,890.551L1833.07,900L1827.76,908.268C1825.52,911.841 1823.08,916.121 1817.72,920.669L1809.45,927.165L1807.09,929.528L1825.39,925.984L1837.8,921.26C1840.35,920.521 1842.91,919.923 1845.47,919.488C1845.45,920.866 1845.21,922.244 1844.88,923.622C1842.85,926.772 1840.49,929.921 1837.8,933.071L1831.3,940.157L1823.03,949.016L1814.76,956.102L1809.45,960.236L1807.68,963.78L1807.09,974.409L1806.5,989.764L1805.91,1002.76L1803.54,1014.57L1801.18,1024.02L1795.87,1042.91L1787.01,1065.35L1778.74,1084.25L1768.11,1099.61L1752.76,1119.68L1737.4,1136.22L1726.18,1146.26L1719.09,1152.16L1701.97,1164.57L1678.35,1176.38L1665.35,1182.28L1633.47,1191.73L1609.84,1195.28L1583.86,1196.46L1549.61,1195.28L1527.16,1190.55L1503.54,1183.46L1482.28,1174.02L1463.98,1163.98C1462.3,1162.52 1461.37,1160.72 1461.02,1158.66L1477.56,1159.84L1504.72,1158.07L1527.16,1152.76L1551.97,1142.72L1567.91,1133.27L1572.05,1129.13C1563.85,1127.81 1555.57,1125.29 1547.24,1122.05C1540.88,1118.95 1534.57,1115.18 1528.35,1110.24C1523.22,1105.9 1518.41,1101.26 1514.17,1096.06L1507.09,1085.43L1503.54,1073.62L1504.72,1071.26L1518.9,1072.44L1531.89,1072.44L1517.72,1065.35L1504.72,1055.91L1491.73,1044.09L1482.28,1027.56L1477.56,1011.02L1475.2,996.85L1475.79,990.945L1483.46,994.488L1489.37,996.85L1501.18,1000.39L1505.91,1000.39L1494.09,988.583L1487.01,977.953L1479.92,961.417L1476.38,946.063L1476.38,927.165L1479.92,912.992L1483.46,903.543L1488.19,895.276Z" style="fill:white;"/>
        <clipPath id="_clip1">
            <path d="M1488.19,895.276L1504.75,914.129L1523.62,930.709L1541.34,944.882L1558.47,953.74L1575.59,962.008L1593.31,968.504L1609.84,973.228L1630.51,977.362L1648.82,979.134L1647.64,960.236C1647.51,951.969 1647.86,943.701 1651.18,935.433C1653,928.74 1657.16,922.047 1662.4,915.354C1665.11,909.725 1671.74,904.235 1677.76,898.819L1695.47,888.78C1702.55,885.27 1709.96,882.781 1716.14,882.874L1737.4,882.874L1752.76,885.827L1761.02,889.37L1768.7,893.504L1778.15,900.591L1783.47,905.906L1797.64,904.724L1813.58,898.819L1824.8,893.504C1828.02,891.456 1831.33,890.08 1835.43,888.78C1836.16,889.173 1835.89,889.836 1835.43,890.551L1833.07,900L1827.76,908.268C1825.52,911.841 1823.08,916.121 1817.72,920.669L1809.45,927.165L1807.09,929.528L1825.39,925.984L1837.8,921.26C1840.35,920.521 1842.91,919.923 1845.47,919.488C1845.45,920.866 1845.21,922.244 1844.88,923.622C1842.85,926.772 1840.49,929.921 1837.8,933.071L1831.3,940.157L1823.03,949.016L1814.76,956.102L1809.45,960.236L1807.68,963.78L1807.09,974.409L1806.5,989.764L1805.91,1002.76L1803.54,1014.57L1801.18,1024.02L1795.87,1042.91L1787.01,1065.35L1778.74,1084.25L1768.11,1099.61L1752.76,1119.68L1737.4,1136.22L1726.18,1146.26L1719.09,1152.16L1701.97,1164.57L1678.35,1176.38L1665.35,1182.28L1633.47,1191.73L1609.84,1195.28L1583.86,1196.46L1549.61,1195.28L1527.16,1190.55L1503.54,1183.46L1482.28,1174.02L1463.98,1163.98C1462.3,1162.52 1461.37,1160.72 1461.02,1158.66L1477.56,1159.84L1504.72,1158.07L1527.16,1152.76L1551.97,1142.72L1567.91,1133.27L1572.05,1129.13C1563.85,1127.81 1555.57,1125.29 1547.24,1122.05C1540.88,1118.95 1534.57,1115.18 1528.35,1110.24C1523.22,1105.9 1518.41,1101.26 1514.17,1096.06L1507.09,1085.43L1503.54,1073.62L1504.72,1071.26L1518.9,1072.44L1531.89,1072.44L1517.72,1065.35L1504.72,1055.91L1491.73,1044.09L1482.28,1027.56L1477.56,1011.02L1475.2,996.85L1475.79,990.945L1483.46,994.488L1489.37,996.85L1501.18,1000.39L1505.91,1000.39L1494.09,988.583L1487.01,977.953L1479.92,961.417L1476.38,946.063L1476.38,927.165L1479.92,912.992L1483.46,903.543L1488.19,895.276Z"/>
        </clipPath>
        <g clip-path="url(#_clip1)">
            <rect x="1445.44" y="883.465" width="444.321" height="356.693" style="fill:rgb(57,174,207);"/>
        </g>
        <path d="M1488.19,895.276L1504.75,914.129L1523.62,930.709L1541.34,944.882L1558.47,953.74L1575.59,962.008L1593.31,968.504L1609.84,973.228L1630.51,977.362L1648.82,979.134L1647.64,960.236C1647.51,951.969 1647.86,943.701 1651.18,935.433C1653,928.74 1657.16,922.047 1662.4,915.354C1665.11,909.725 1671.74,904.235 1677.76,898.819L1695.47,888.78C1702.55,885.27 1709.96,882.781 1716.14,882.874L1737.4,882.874L1752.76,885.827L1761.02,889.37L1768.7,893.504L1778.15,900.591L1783.47,905.906L1797.64,904.724L1813.58,898.819L1824.8,893.504C1828.02,891.456 1831.33,890.08 1835.43,888.78C1836.16,889.173 1835.89,889.836 1835.43,890.551L1833.07,900L1827.76,908.268C1825.52,911.841 1823.08,916.121 1817.72,920.669L1809.45,927.165L1807.09,929.528L1825.39,925.984L1837.8,921.26C1840.35,920.521 1842.91,919.923 1845.47,919.488C1845.45,920.866 1845.21,922.244 1844.88,923.622C1842.85,926.772 1840.49,929.921 1837.8,933.071L1831.3,940.157L1823.03,949.016L1814.76,956.102L1809.45,960.236L1807.68,963.78L1807.09,974.409L1806.5,989.764L1805.91,1002.76L1803.54,1014.57L1801.18,1024.02L1795.87,1042.91L1787.01,1065.35L1778.74,1084.25L1768.11,1099.61L1752.76,1119.68L1737.4,1136.22L1726.18,1146.26L1719.09,1152.16L1701.97,1164.57L1678.35,1176.38L1665.35,1182.28L1633.47,1191.73L1609.84,1195.28L1583.86,1196.46L1549.61,1195.28L1527.16,1190.55L1503.54,1183.46L1482.28,1174.02L1463.98,1163.98C1462.3,1162.52 1461.37,1160.72 1461.02,1158.66L1477.56,1159.84L1504.72,1158.07L1527.16,1152.76L1551.97,1142.72L1567.91,1133.27L1572.05,1129.13C1563.85,1127.81 1555.57,1125.29 1547.24,1122.05C1540.88,1118.95 1534.57,1115.18 1528.35,1110.24C1523.22,1105.9 1518.41,1101.26 1514.17,1096.06L1507.09,1085.43L1503.54,1073.62L1504.72,1071.26L1518.9,1072.44L1531.89,1072.44L1517.72,1065.35L1504.72,1055.91L1491.73,1044.09L1482.28,1027.56L1477.56,1011.02L1475.2,996.85L1475.79,990.945L1483.46,994.488L1489.37,996.85L1501.18,1000.39L1505.91,1000.39L1494.09,988.583L1487.01,977.953L1479.92,961.417L1476.38,946.063L1476.38,927.165L1479.92,912.992L1483.46,903.543L1488.19,895.276Z" style="fill:none;stroke:black;stroke-width:1px;"/>
    </g>
</svg>
